<?xml version="1.0" encoding="utf-8"?>
<!-- Generator: Adobe Illustrator 26.0.3, SVG Export Plug-In . SVG Version: 6.00 Build 0)  -->
<svg version="1.1" id="Layer_1" xmlns="http://www.w3.org/2000/svg" xmlns:xlink="http://www.w3.org/1999/xlink" x="0px" y="0px"
	 viewBox="0 0 86.5 55.4" style="enable-background:new 0 0 86.5 55.4;" xml:space="preserve">
<style type="text/css">
	.st0{display:none;}
	.st1{display:inline;}
	.st2{clip-path:url(#SVGID_00000147185997868451885630000016498328312753649800_);fill:none;}
	.st3{clip-path:url(#SVGID_00000122722076795229277990000002708289216188590740_);fill:none;}
	.st4{clip-path:url(#SVGID_00000083051360726578586020000001865645997803479210_);fill:none;}
	.st5{clip-path:url(#SVGID_00000009579554254981530680000010792851690128917391_);fill:none;}
	.st6{clip-path:url(#SVGID_00000099642954723377824960000004636201620049212310_);fill:none;}
	
		.st7{clip-path:url(#SVGID_00000098917497413860752870000017783390159704705180_);fill:none;stroke:#ED2224;stroke-width:2;stroke-linecap:round;stroke-linejoin:round;stroke-miterlimit:10;}
	
		.st8{clip-path:url(#SVGID_00000045581369013272535680000002031781150042125716_);fill:none;stroke:#ED2224;stroke-width:2;stroke-linecap:round;stroke-linejoin:round;stroke-miterlimit:10;}
	
		.st9{clip-path:url(#SVGID_00000122001645052154577030000004253604528837880968_);fill:none;stroke:#ED2224;stroke-width:2;stroke-linecap:round;stroke-linejoin:round;stroke-miterlimit:10;}
	
		.st10{clip-path:url(#SVGID_00000046338035842776120010000008150556011964724390_);fill:none;stroke:#ED2224;stroke-width:2;stroke-linecap:round;stroke-linejoin:round;stroke-miterlimit:10;}
	
		.st11{clip-path:url(#SVGID_00000077302717565966601200000001853125013658246558_);fill:none;stroke:#ED2224;stroke-width:2;stroke-linecap:round;stroke-linejoin:round;stroke-miterlimit:10;}
	.st12{opacity:0.5;fill:#FFFFFF;enable-background:new    ;}
	.st13{opacity:0.7;fill:#EF32B2;enable-background:new    ;}
</style>
<g id="Layer_1_00000168815725006158569700000014978664664442981812_" class="st0">
	<g class="st1">
		<g>
			<defs>
				<polyline id="SVGID_1_" points="-9.6,779 602.3,779 602.3,-8.2 -9.6,-8.2 -9.6,779 				"/>
			</defs>
			<clipPath id="SVGID_00000084491074852574788200000012567177621661021854_">
				<use xlink:href="#SVGID_1_"  style="overflow:visible;"/>
			</clipPath>
			<polyline style="clip-path:url(#SVGID_00000084491074852574788200000012567177621661021854_);fill:none;" points="410.1,228.5 
				410.1,228.5 409.9,228.5 409.6,228.4 409,228.4 408.4,228.3 406.9,228.1 406.3,228.1 405.9,228 405.7,228 405.6,228 405.6,228 
				405.5,227.9 405.4,227.9 405.1,227.9 404.8,227.9 404.4,227.8 403.9,227.8 403.4,227.7 402.8,227.6 401.4,227.5 399.9,227.3 
				398.1,227.1 396.3,226.9 394.5,226.7 390.7,226.3 388.9,226.1 387.2,225.9 385.6,225.7 384.3,225.5 383.7,225.5 383.2,225.4 
				382.7,225.4 382.3,225.3 382,225.3 381.8,225.2 381.7,225.2 381.6,225.2 381.6,225.2 381.4,225.2 381.3,225.1 381,225 
				380.6,224.8 380.2,224.7 379.2,224.3 378,223.8 376.6,223.3 375.1,222.7 373.6,222.1 370.3,220.9 368.7,220.2 367.2,219.6 
				365.7,219.1 364.4,218.5 363.3,218.1 362.3,217.7 361.9,217.6 361.6,217.4 361.3,217.3 361.1,217.3 361,217.2 361,217.2 
				360.9,217.1 360.9,217.1 360.6,216.8 360,216.5 359.4,216.1 358.6,215.5 357.7,214.9 356.8,214.2 354.7,212.7 352.7,211.2 
				351.7,210.5 350.7,209.8 349.9,209.2 349.2,208.7 348.6,208.3 348.1,207.9 347.8,207.7 347.7,207.7 347.7,207.6 347.4,207.4 
				347.1,207.2 346.7,206.9 345.9,206.3 345.6,206.1 345.3,205.9 345.2,205.8 345.1,205.7 345,205.7 344.8,205.5 344.7,205.3 
				344.1,204.8 343.5,204.2 342.6,203.4 341.7,202.5 340.7,201.5 338.5,199.5 336.3,197.5 335.3,196.4 334.3,195.5 333.4,194.7 
				332.7,194 332,193.4 331.8,193.1 331.6,192.9 331.4,192.8 331.3,192.7 331.2,192.6 331.2,192.5 331,192.4 330.9,192.3 
				330.6,192.1 330.4,191.8 330.1,191.6 329.3,190.9 328.4,190.1 327.4,189.2 326.4,188.2 325.2,187.1 322.8,185 321.7,184 
				320.5,182.9 319.5,182 318.6,181.1 317.7,180.4 317.1,179.8 316.8,179.6 316.5,179.3 316.3,179.2 316.3,179.1 316.2,179 
				316.1,179 315.9,178.9 315.7,178.7 315.4,178.6 315.1,178.3 314.7,178.1 313.7,177.4 312.6,176.7 311.3,175.9 309.9,175 307,173 
				304,171.1 302.5,170.2 301.2,169.3 300,168.5 299,167.8 298.5,167.6 298.2,167.3 297.8,167.1 297.5,166.9 297.3,166.7 
				297.1,166.7 297.1,166.6 296.9,166.6 296.5,166.4 296,166.2 295.3,166 294.6,165.7 293.7,165.4 291.7,164.6 289.6,163.8 
				287.6,163.1 286.7,162.7 285.9,162.4 285.1,162.1 284.6,161.9 284.2,161.8 283.9,161.7 283.9,161.6 283.7,161.6 283.3,161.5 
				282.8,161.3 282.1,161 281.4,160.7 280.5,160.4 279.6,160.1 277.6,159.3 275.5,158.5 274.6,158.2 273.7,157.9 272.9,157.6 
				272.2,157.3 271.6,157.1 271.2,157 271,156.8 270.9,156.8 270.7,156.8 270.4,156.7 270,156.7 269.4,156.6 268.8,156.5 268,156.4 
				267.1,156.2 266.1,156.1 265,155.9 263.9,155.7 261.5,155.3 258.9,154.9 256,154.5 250.4,153.6 247.6,153.2 244.9,152.8 
				242.4,152.4 241.3,152.2 240.2,152 239.2,151.9 238.2,151.7 237.4,151.6 236.7,151.5 236.1,151.4 235.6,151.3 235.2,151.3 
				234.9,151.2 234.9,151.2 234.8,151.2 234.6,151.2 234.3,151.1 233.7,151.1 233.1,151.1 232.3,151.1 231.4,151 230.4,151 
				226.3,150.8 225.4,150.8 224.5,150.8 223.6,150.7 223,150.7 222.4,150.7 222,150.7 221.8,150.7 221.7,150.7 221.6,150.7 
				221.4,150.7 221.1,150.6 220.6,150.6 220.2,150.6 219.7,150.6 218.5,150.5 217,150.5 215.4,150.4 213.7,150.3 211.8,150.2 
				208.1,150.1 206.3,150 204.5,149.9 202.9,149.9 201.4,149.8 200.2,149.8 199.6,149.8 199.2,149.8 			"/>
		</g>
		<g>
			<defs>
				<polyline id="SVGID_00000143590107263079858360000007928433562087407793_" points="-9.6,779 602.3,779 602.3,-8.2 -9.6,-8.2 
					-9.6,779 				"/>
			</defs>
			<clipPath id="SVGID_00000062188127971094611660000015530351630239945347_">
				<use xlink:href="#SVGID_00000143590107263079858360000007928433562087407793_"  style="overflow:visible;"/>
			</clipPath>
			<polyline style="clip-path:url(#SVGID_00000062188127971094611660000015530351630239945347_);fill:none;" points="199.2,149.8 
				198.8,149.7 198.5,149.7 198.3,149.7 198.1,149.7 198,149.7 197.8,149.7 197.6,149.7 197.2,149.7 196.8,149.8 196.2,149.8 
				195.6,149.8 194.9,149.8 194.2,149.8 192.5,149.9 190.6,149.9 188.6,150 184.3,150.2 180,150.4 178,150.4 176.1,150.5 
				174.4,150.5 173.7,150.5 172.9,150.6 172.3,150.6 171.8,150.7 171.3,150.7 171,150.7 170.7,150.7 170.5,150.7 170.4,150.7 
				170.2,150.7 169.9,150.8 169.4,150.8 168.8,151 168.1,151.1 167.3,151.2 166.4,151.3 165.4,151.5 164.4,151.7 163.3,151.9 
				160.9,152.3 158.3,152.7 155.5,153.1 150,154 147.3,154.5 144.7,154.9 142.3,155.3 141.2,155.5 140.2,155.6 139.2,155.8 
				138.3,155.9 137.5,156.1 136.9,156.2 136.3,156.2 135.9,156.4 135.5,156.4 135.3,156.4 135.2,156.4 135.1,156.5 134.8,156.5 
				134.5,156.6 134.2,156.7 133.7,156.7 133.2,156.8 132,157.1 130.6,157.4 129.1,157.7 127.5,158 120.6,159.4 119,159.7 117.5,160 
				116.1,160.3 115,160.5 114.5,160.6 114.1,160.7 113.7,160.8 113.5,160.9 113.2,160.9 113.1,160.9 112.9,160.9 112.5,160.9 
				112,160.9 111.4,160.8 110.2,160.7 109.7,160.7 109.3,160.7 109.2,160.7 109,160.7 108.8,160.7 108.5,160.7 108.1,160.6 
				107.7,160.6 106.6,160.6 105.5,160.5 104.4,160.4 103.3,160.4 102.9,160.4 102.5,160.3 102.3,160.3 102,160.3 102,160.3 
				101.9,160.3 101.8,160.3 101.6,160.2 101.3,160.1 101,160 100.2,159.8 98.2,159.3 97.3,159.1 96.6,158.9 96.3,158.8 96,158.7 
				95.8,158.6 95.8,158.6 95.7,158.6 95.6,158.6 95.4,158.5 95,158.4 94.6,158.3 94.1,158.2 93,157.9 90.6,157.2 89.5,157 
				89.1,156.8 88.6,156.7 88.3,156.6 88.2,156.6 88,156.5 87.9,156.4 87.7,156.3 87.5,156.1 87.2,155.8 86.5,155.2 85.7,154.6 
				84.9,153.8 84.1,153.2 83.4,152.6 83.1,152.4 82.9,152.2 82.8,152.1 82.8,152 82.7,151.9 82.7,151.6 82.7,151.3 82.7,150.8 
				82.6,150.4 82.6,149.3 82.6,148.1 82.5,147 82.5,145.9 82.5,145.5 82.5,145.1 82.5,144.8 82.5,144.7 82.5,144.5 82.6,144.3 
				82.7,144 82.9,143.5 83.1,143 83.4,142.3 83.7,141.7 84.4,140.1 85,138.5 85.7,137.1 85.9,136.4 86.2,135.8 86.4,135.4 86.6,135 
				86.7,134.7 86.7,134.6 86.8,134.6 87,134.3 87.3,133.9 87.6,133.3 88.1,132.7 88.6,131.9 89.2,131.1 89.9,130.2 92.5,126.5 
				93.1,125.6 93.7,124.9 94.2,124.1 94.6,123.6 94.9,123.1 95.1,122.8 95.2,122.7 95.3,122.6 95.5,122.5 95.6,122.3 95.7,122.2 
				95.8,122.2 95.8,122.2 96,122 96.2,121.7 96.6,121.4 97,121 97.5,120.5 98.1,119.9 98.8,119.2 99.6,118.5 100.3,117.7 
				101.2,116.8 102.1,115.9 104.1,114.1 106.1,112 110.4,107.8 112.5,105.7 114.6,103.6 116.5,101.7 117.4,100.8 118.3,99.9 
				119.2,99.1 119.9,98.4 120.6,97.7 121.2,97.1 121.8,96.5 122.2,96.1 122.6,95.8 122.8,95.5 123,95.3 123.1,95.2 123.1,95.2 
				123.4,95 123.8,94.7 124.3,94.4 124.9,93.9 125.7,93.3 126.6,92.7 127.6,92 128.7,91.2 129.9,90.3 131.1,89.4 132.4,88.4 
				133.8,87.4 135.2,86.4 138.2,84.2 141.3,82 147.6,77.4 150.6,75.2 152,74.2 153.4,73.1 154.7,72.2 156,71.3 157.2,70.4 
				158.2,69.6 159.2,68.9 160.1,68.2 160.9,67.7 161.5,67.2 162.1,66.8 			"/>
		</g>
		<g>
			<defs>
				<polyline id="SVGID_00000098913093341225733300000004968452089242082715_" points="-9.6,779 602.3,779 602.3,-8.2 -9.6,-8.2 
					-9.6,779 				"/>
			</defs>
			<clipPath id="SVGID_00000050648563281838804110000017088468748633673347_">
				<use xlink:href="#SVGID_00000098913093341225733300000004968452089242082715_"  style="overflow:visible;"/>
			</clipPath>
			<polyline style="clip-path:url(#SVGID_00000050648563281838804110000017088468748633673347_);fill:none;" points="162.1,66.8 
				162.4,66.5 162.7,66.4 162.8,66.3 162.9,66.2 163.2,66.1 163.6,65.8 164.3,65.5 165.1,65 166,64.5 167.1,63.9 168.3,63.3 
				169.6,62.5 171.1,61.8 172.6,61 174.2,60.1 175.9,59.2 177.6,58.2 181.3,56.2 188.8,52.1 192.6,50 196.3,48.1 198,47.1 
				199.7,46.2 201.3,45.4 202.8,44.5 204.3,43.7 205.6,43 206.8,42.4 207.9,41.8 208.8,41.3 209.5,40.9 210.2,40.5 210.6,40.3 
				210.9,40.1 211,40.1 211.1,40 211.3,39.9 211.8,39.8 212.2,39.5 212.9,39.3 213.6,39 214.3,38.7 216,38 217.7,37.3 219.3,36.7 
				219.9,36.4 220.6,36.1 221.1,35.9 221.4,35.8 221.7,35.7 221.7,35.6 221.8,35.6 221.9,35.6 222.3,35.5 222.9,35.2 223.6,34.9 
				224.5,34.6 225.5,34.1 226.6,33.7 227.8,33.2 230.2,32.2 232.6,31.2 233.7,30.7 234.7,30.4 235.6,30 236.3,29.7 236.8,29.5 
				237.1,29.3 237.3,29.3 237.3,29.3 237.5,29.2 237.8,29.1 238.2,29 238.6,28.9 239.2,28.7 239.8,28.5 240.6,28.3 241.3,28 
				242.1,27.8 243.9,27.2 245.8,26.6 247.9,25.9 250,25.3 254.3,23.9 256.3,23.3 258.3,22.7 260,22.1 260.8,21.9 261.5,21.7 
				262.2,21.5 262.8,21.3 263.2,21.1 263.7,21 264,20.9 264.3,20.8 264.4,20.8 264.4,20.8 264.5,20.8 264.7,20.7 265,20.6 
				265.4,20.6 265.9,20.5 266.4,20.3 267.1,20.2 267.8,20.1 268.6,19.9 269.4,19.7 271.2,19.4 273.3,19 275.4,18.5 279.7,17.6 
				281.8,17.2 283.9,16.7 285.9,16.3 287.6,16 288.4,15.8 289.2,15.7 289.8,15.5 290.4,15.4 290.9,15.3 291.3,15.2 291.7,15.1 
				291.9,15.1 292,15.1 292.2,15.1 292.3,15.1 292.7,15 293.1,15 293.5,14.9 294.1,14.9 294.8,14.8 295.5,14.8 297.1,14.6 299,14.5 
				301,14.3 303.1,14.1 305.2,13.9 309.6,13.6 311.7,13.3 313.6,13.2 315.4,13 316.2,13 316.9,12.9 317.5,12.8 318.1,12.8 
				318.7,12.7 319.1,12.7 319.4,12.7 319.6,12.7 319.8,12.7 319.9,12.7 320.1,12.7 320.4,12.7 320.8,12.7 321.3,12.7 321.9,12.8 
				322.5,12.8 323.2,12.8 324.9,12.9 326.7,13 328.6,13.1 330.7,13.2 335.1,13.4 337.2,13.6 339.2,13.7 341.1,13.7 342.9,13.9 
				343.6,13.9 344.4,13.9 345,14 345.6,14 346.1,14 346.5,14 346.8,14 347,14 347.1,14 347.2,14.1 347.5,14.2 347.7,14.2 
				347.8,14.2 347.8,14.2 348.1,14.3 348.4,14.3 348.8,14.4 349.3,14.5 349.8,14.6 350.4,14.8 351.1,14.9 352.7,15.3 354.4,15.7 
				356.3,16.1 358.3,16.5 362.4,17.4 364.4,17.8 366.4,18.2 368.2,18.6 369.8,19 370.5,19.1 371.2,19.3 371.8,19.4 372.3,19.6 
				372.8,19.6 373.2,19.7 373.5,19.8 373.6,19.8 373.8,19.9 373.9,19.9 374.1,20 374.4,20.1 374.8,20.2 375.2,20.4 375.7,20.6 
				376.3,20.8 376.9,21.1 378.4,21.7 380.1,22.3 381.9,23 385.6,24.5 389.4,26 391.2,26.6 392.9,27.3 394.4,27.9 395.1,28.2 
				395.7,28.4 396.3,28.6 396.8,28.9 397.2,29 397.6,29.2 397.8,29.2 398,29.3 398.1,29.3 398.2,29.4 398.4,29.5 398.7,29.6 
				399,29.9 399.4,30.1 399.8,30.4 400.9,31 402.1,31.7 403.5,32.5 405.1,33.4 406.6,34.3 409.9,36.2 411.6,37.1 413.1,38 
				414.6,38.8 415.8,39.5 417,40.1 417.4,40.4 			"/>
		</g>
		<g>
			<defs>
				<polyline id="SVGID_00000083076346538443886870000015492505086098936509_" points="-9.6,779 602.3,779 602.3,-8.2 -9.6,-8.2 
					-9.6,779 				"/>
			</defs>
			<clipPath id="SVGID_00000073694765580874695180000016605828447897866889_">
				<use xlink:href="#SVGID_00000083076346538443886870000015492505086098936509_"  style="overflow:visible;"/>
			</clipPath>
			<polyline style="clip-path:url(#SVGID_00000073694765580874695180000016605828447897866889_);fill:none;" points="417.4,40.4 
				417.9,40.7 418.2,40.9 418.5,41 418.7,41.2 418.8,41.3 418.9,41.3 419,41.4 419.2,41.5 419.4,41.7 419.7,41.9 420,42.2 
				420.4,42.5 421.3,43.2 422.4,44 423.6,45 424.8,46 430.3,50.4 431.6,51.4 432.8,52.4 433.9,53.3 434.8,54 435.2,54.3 435.6,54.6 
				435.8,54.8 436,55 436.2,55.1 436.3,55.3 436.4,55.3 436.5,55.4 436.6,55.6 436.8,55.7 437.1,56 437.3,56.3 437.7,56.6 
				438.4,57.5 439.2,58.4 440.2,59.5 441.3,60.6 442.3,61.8 444.6,64.3 445.7,65.5 446.8,66.6 447.7,67.7 448.6,68.6 449.4,69.5 
				449.7,69.8 450,70.1 450.2,70.4 450.4,70.6 450.5,70.7 450.6,70.8 450.7,70.9 450.7,71 450.9,71.2 451,71.4 451.2,71.6 
				451.6,72.4 452.2,73.2 452.9,74.3 453.7,75.4 454.5,76.6 456.2,79.3 457.9,81.8 458.7,83.1 459.5,84.2 460.2,85.3 460.8,86.2 
				461.2,86.8 461.4,87.1 461.5,87.4 461.7,87.5 461.7,87.6 461.8,87.7 461.8,87.9 462.1,88.3 462.3,88.9 462.7,89.7 463.1,90.5 
				463.6,91.6 464.5,93.7 465.6,96 466.6,98.2 467.1,99.1 467.5,100 467.8,100.7 468.1,101.3 468.3,101.8 468.4,101.9 468.4,102.1 
				468.5,102.3 468.7,102.7 468.9,103.1 469.3,104.1 469.6,104.5 469.7,104.9 469.8,105.1 469.9,105.2 469.9,105.3 469.9,105.5 
				470,105.8 470.1,106.1 470.4,106.8 470.6,107.8 471,108.9 471.3,110.1 471.7,111.4 472.1,112.8 472.9,115.6 473.3,117 
				473.7,118.3 474,119.5 474.4,120.6 474.6,121.5 474.9,122.2 474.9,122.5 475,122.8 475,122.9 475,123 475,123.1 475.1,123.2 
				475.1,123.4 475.2,124 475.3,124.7 475.4,125.6 475.6,126.8 475.7,128 475.9,129.3 476.3,132.1 476.7,134.9 476.8,136.1 
				477,137.3 477.1,138.4 477.3,139.3 477.3,140 477.4,140.3 477.4,140.5 477.4,140.6 477.4,140.8 477.4,140.8 477.4,140.9 
				477.4,141.1 477.4,141.7 477.4,142.4 477.4,143.4 477.4,144.5 477.4,145.7 477.3,148.3 477.3,151 477.3,152.3 477.3,153.5 
				477.3,154.7 477.2,155.8 477.2,156.6 477.2,157.3 477.2,157.7 477.2,157.9 477.2,158 477.2,158 477.1,158.2 477.1,158.4 
				477,158.9 476.9,159.6 476.7,160.5 476.6,161.5 476.4,162.7 476.2,163.9 475.3,169 475.1,170.2 474.9,171.2 474.7,172.2 
				474.6,173 474.4,173.6 474.4,174.1 474.4,174.2 474.4,174.3 474.3,174.4 474.2,174.7 474.1,175.1 473.8,175.8 473.5,176.6 
				473.2,177.5 472.8,178.6 472,180.9 471.2,183.2 470.8,184.4 470.4,185.5 470.1,186.4 469.8,187.3 469.5,188.1 469.3,188.6 
				469.2,189.1 469.1,189.2 469.1,189.2 469,189.3 468.9,189.5 468.6,190 468.3,190.6 467.9,191.3 467.4,192.1 466.9,193.1 
				466.3,194 465.1,196.1 463.9,198.1 463.4,199.1 462.9,199.9 462.4,200.7 462.1,201.4 461.8,201.9 461.6,202.2 461.5,202.4 
				461.4,202.4 461.2,202.6 460.9,203 460.5,203.5 459.9,204.1 459.3,204.8 458.6,205.6 457.1,207.2 455.5,209 454.8,209.8 
				454.1,210.6 453.4,211.3 452.9,211.9 452.4,212.5 452.1,212.9 451.8,213.2 451.7,213.3 451.6,213.3 451.3,213.5 451,213.8 
				450.4,214.1 449.7,214.6 449,215.2 448.2,215.8 447.3,216.4 443.5,218.9 442.7,219.5 441.9,220.1 441.2,220.6 440.6,221 
				440.2,221.3 439.9,221.5 439.8,221.6 439.7,221.6 439.4,221.7 438.9,221.9 438.3,222.1 437.5,222.4 436.6,222.8 435.6,223.1 
				433.5,223.9 431.3,224.8 430.2,225.1 429.3,225.5 428.3,225.8 			"/>
		</g>
		<g>
			<defs>
				<polyline id="SVGID_00000105390214936227964130000016482437443487283844_" points="-9.6,779 602.3,779 602.3,-8.2 -9.6,-8.2 
					-9.6,779 				"/>
			</defs>
			<clipPath id="SVGID_00000132780393883031098540000002034406657024184467_">
				<use xlink:href="#SVGID_00000105390214936227964130000016482437443487283844_"  style="overflow:visible;"/>
			</clipPath>
			<polyline style="clip-path:url(#SVGID_00000132780393883031098540000002034406657024184467_);fill:none;" points="428.3,225.8 
				427.5,226.1 426.9,226.4 426.3,226.6 426,226.7 425.9,226.8 425.8,226.8 425.5,226.8 425.2,226.9 424.6,226.9 424,227 423.3,227 
				421.7,227.2 420,227.4 418.3,227.6 417.5,227.7 416.8,227.8 416.1,227.8 415.6,227.9 415.2,227.9 414.9,227.9 414.9,228 
				414.8,228 414.7,228 414.6,228 414,228.1 413.4,228.1 411.9,228.3 411.2,228.4 410.7,228.4 410.2,228.5 410.1,228.5 			"/>
		</g>
		<g>
			<defs>
				<polyline id="SVGID_00000145744540211147609960000003937487454522810005_" points="-9.6,779 602.3,779 602.3,-8.2 -9.6,-8.2 
					-9.6,779 				"/>
			</defs>
			<clipPath id="SVGID_00000052066838447874745670000008526357633591568769_">
				<use xlink:href="#SVGID_00000145744540211147609960000003937487454522810005_"  style="overflow:visible;"/>
			</clipPath>
			
				<polyline style="clip-path:url(#SVGID_00000052066838447874745670000008526357633591568769_);fill:none;stroke:#ED2224;stroke-width:2;stroke-linecap:round;stroke-linejoin:round;stroke-miterlimit:10;" points="
				526,241.7 526,241.7 526.1,241.7 526.5,241.7 526.9,241.8 527.5,241.8 528.8,241.8 529.3,241.8 529.7,241.9 529.9,241.9 
				530.1,241.9 530.2,241.9 530.5,241.9 531,241.9 531.4,241.9 532.5,241.9 533.6,241.9 534.7,241.9 535.8,241.9 536.2,242 
				536.6,242 536.9,242 537.1,242 537.3,242 537.6,242 538,242.2 538.6,242.3 539.5,242.5 540.4,242.7 541.4,242.9 543.6,243.5 
				545.8,244 546.9,244.3 547.9,244.5 548.8,244.7 549.6,244.9 550.3,245 550.8,245.2 551.1,245.2 551.2,245.2 551.2,245.3 
				551.4,245.4 551.6,245.6 551.9,245.8 552.6,246.4 553.4,247 555.1,248.3 555.9,248.9 556.2,249.2 556.4,249.4 556.6,249.5 
				556.6,249.5 556.6,249.7 556.7,249.9 556.7,250.3 556.8,250.7 556.8,251.1 556.9,252.2 556.9,253.4 557,254.6 557.1,255.7 
				557.1,256.1 557.2,256.4 557.2,256.7 557.2,256.9 557.2,257.1 557.1,257.3 556.9,257.7 556.8,258.2 556.5,258.7 556.3,259.4 
				556,260.2 554.7,263.3 554.1,264.8 553.9,265.5 553.6,266 553.5,266.5 553.3,266.9 553.3,267.1 553.3,267.1 553.2,267.3 
				552.9,267.6 552.6,268.1 552.2,268.7 551.7,269.5 551.1,270.4 549.9,272.2 548.6,274.1 547.3,276 546.8,276.8 546.3,277.6 
				545.9,278.3 545.5,278.8 545.3,279.1 545.2,279.3 545.1,279.4 544.9,279.6 544.6,280 544.2,280.4 543.7,280.9 543.1,281.5 
				542.5,282.2 541.8,283 541,283.7 540.1,284.6 539.2,285.6 537.3,287.6 535.3,289.8 531,294.4 528.8,296.6 526.8,298.8 
				524.8,300.9 523.9,301.9 523,302.8 522.1,303.7 521.4,304.4 520.7,305.2 520.1,305.8 519.6,306.4 519.1,306.9 518.8,307.3 
				518.5,307.6 518.4,307.7 518.3,307.7 518.2,307.8 517.9,308 517.5,308.3 517,308.8 516.3,309.3 515.5,309.9 514.6,310.6 
				513.6,311.5 512.5,312.3 511.3,313.3 510,314.2 508.7,315.3 507.3,316.4 505.9,317.5 502.9,319.9 499.8,322.3 496.6,324.7 
				493.6,327.1 490.6,329.4 489.3,330.5 487.9,331.6 486.7,332.6 485.5,333.5 484.3,334.4 483.4,335.2 482.4,335.9 481.6,336.5 
				481,337 480.4,337.4 480,337.8 479.7,338 479.7,338 479.7,338.1 479.5,338.1 479.4,338.2 479.1,338.4 478.8,338.6 478,339 
				477.1,339.5 476.1,340.1 475.2,340.7 474.5,341.1 474.2,341.3 474,341.4 473.8,341.5 473.7,341.6 473.7,341.6 473.5,341.7 
				473.1,341.9 472.6,342.2 472,342.6 471.1,343.1 470.2,343.6 469.2,344.2 468.1,344.9 466.8,345.6 465.5,346.4 464.1,347.2 
				462.7,348.1 461.1,349 458,350.8 451.3,354.7 448,356.7 444.9,358.6 443.4,359.5 441.9,360.3 440.5,361.1 439.2,361.9 438,362.6 
				436.8,363.3 435.8,363.9 434.9,364.4 434.1,364.9 433.5,365.3 432.9,365.6 432.6,365.8 432.4,365.9 432.3,366 432.1,366.1 
				431.8,366.2 431.4,366.4 430.9,366.6 430.3,366.8 429.7,367.1 429,367.4 428.2,367.8 427.5,368.2 425.7,368.9 423.7,369.8 
				419.7,371.7 415.6,373.6 413.6,374.4 411.8,375.2 410.2,376 409.5,376.3 408.8,376.6 408.2,376.9 407.7,377.1 407.3,377.3 
				406.9,377.5 406.7,377.6 406.5,377.6 406.4,377.6 406.2,377.7 406,377.8 405.6,377.9 405.1,378.1 404.5,378.3 403.9,378.5 
				403.2,378.8 402.4,379.1 400.7,379.7 398.8,380.3 396.8,381.1 394.6,381.8 390.4,383.3 388.3,384.1 386.3,384.7 384.5,385.4 
				383.7,385.7 382.9,385.9 382.2,386.2 381.6,386.4 381,386.6 380.5,386.8 380.2,386.9 379.9,387 379.8,387.1 			"/>
		</g>
		<g>
			<defs>
				<polyline id="SVGID_00000095298352961418259150000012020888774731274661_" points="-9.6,779 602.3,779 602.3,-8.2 -9.6,-8.2 
					-9.6,779 				"/>
			</defs>
			<clipPath id="SVGID_00000068638683048300346310000002121500951048041379_">
				<use xlink:href="#SVGID_00000095298352961418259150000012020888774731274661_"  style="overflow:visible;"/>
			</clipPath>
			
				<polyline style="clip-path:url(#SVGID_00000068638683048300346310000002121500951048041379_);fill:none;stroke:#ED2224;stroke-width:2;stroke-linecap:round;stroke-linejoin:round;stroke-miterlimit:10;" points="
				379.8,387.1 379.7,387.1 379.6,387.1 379.5,387.1 379.2,387.2 378.8,387.3 378.4,387.4 377.8,387.5 377.2,387.7 376.5,387.8 
				375.7,388.1 374.8,388.3 373,388.7 371,389.2 368.9,389.7 364.5,390.8 362.4,391.3 360.3,391.8 358.3,392.3 356.5,392.7 
				355.7,392.9 355,393.1 354.3,393.2 353.8,393.4 353.2,393.5 352.9,393.6 352.5,393.7 352.3,393.7 352.2,393.8 352.2,393.8 
				351.9,393.8 351.3,393.8 350.7,394 349.3,394.1 348.6,394.2 348.1,394.3 347.8,394.3 347.7,394.3 347.7,394.3 347.4,394.3 
				347.2,394.4 346.8,394.4 346.4,394.5 345.9,394.6 345.3,394.6 344,394.7 342.5,394.9 340.9,395.2 339.1,395.3 337.3,395.6 
				333.6,396.1 331.8,396.2 330.1,396.5 328.6,396.7 327.3,396.8 326.7,396.9 326.1,397 325.7,397 325.3,397.1 325,397.1 
				324.8,397.1 324.7,397.1 324.6,397.1 324.6,397.1 324.4,397.1 324.1,397.1 323.7,397.1 323.2,397.1 322.6,397.1 321.9,397.1 
				321.2,397.1 319.6,397.1 317.7,397 315.7,397 313.6,397 309.1,396.9 307,396.8 304.9,396.8 303,396.8 301.3,396.8 300.5,396.7 
				299.8,396.7 299.1,396.7 298.6,396.7 298.1,396.7 297.7,396.7 297.4,396.7 297.3,396.7 297.2,396.7 297,396.7 296.7,396.6 
				296.4,396.5 295.9,396.4 295.4,396.4 294.7,396.2 294.1,396.1 293.3,396 291.6,395.6 289.8,395.3 287.7,395 283.5,394.2 
				279.2,393.4 277.2,393.1 275.4,392.8 273.8,392.5 273.1,392.3 272.5,392.2 271.9,392.1 271.4,392 271,391.9 270.7,391.9 
				270.6,391.9 270.4,391.9 270.4,391.8 270.3,391.8 270.1,391.7 269.7,391.6 269.4,391.4 268.9,391.3 268.3,391.1 267.7,390.9 
				266.2,390.4 264.6,389.8 262.8,389.2 261,388.5 259,387.8 255,386.5 253.2,385.8 251.4,385.1 249.8,384.6 249.1,384.4 
				248.4,384.1 247.8,383.9 247.2,383.7 246.8,383.5 246.4,383.4 246.1,383.3 245.9,383.2 245.8,383.2 245.8,383.2 245.7,383.2 
				245.5,383 245.2,382.9 244.9,382.7 244.5,382.5 244.1,382.3 243.6,382 243,381.7 241.7,381 240.2,380.2 238.6,379.4 237,378.5 
				233.5,376.7 231.9,375.8 230.3,375 228.8,374.2 227.5,373.6 226.9,373.2 226.4,373 225.9,372.7 225.5,372.5 225.1,372.3 
				224.9,372.1 224.7,372.1 224.6,372 224.5,371.9 224.3,371.8 223.9,371.5 223.5,371.2 222.6,370.6 222.3,370.3 222,370 
				221.8,369.9 221.7,369.9 221.7,369.8 221.6,369.8 221.5,369.7 221.2,369.5 220.7,369.1 219.9,368.5 219,367.9 218,367.1 
				216.9,366.3 214.5,364.5 212.1,362.7 210.9,361.9 209.9,361 208.9,360.3 208,359.7 207.4,359.2 207.1,359 206.9,358.9 
				206.7,358.7 206.6,358.6 206.5,358.6 206.5,358.5 206.4,358.4 206.2,358.1 205.9,357.9 205.6,357.6 205.3,357.3 204.5,356.5 
				203.6,355.6 202.5,354.5 201.4,353.3 200.3,352.1 197.9,349.7 196.8,348.5 195.6,347.5 194.7,346.4 193.8,345.5 193,344.7 
				192.7,344.4 192.4,344.1 192.1,343.9 192,343.7 191.8,343.6 191.8,343.6 191.8,343.5 191.7,343.4 191.7,343.3 191.5,343.1 
				191.3,342.8 191.1,342.5 190.5,341.8 189.9,340.9 189.1,339.8 188.3,338.6 187.4,337.3 185.5,334.7 183.7,332.2 182.8,331 
				182.1,329.9 181.4,329 180.9,328.2 180.6,327.8 180.4,327.6 180.3,327.4 180.2,327.2 180.1,327.2 180.1,327.1 180,326.9 
				179.9,326.8 179.8,326.5 179.4,325.9 179,325 178.5,323.9 177.9,322.7 177.3,321.5 175.9,318.7 174.5,316 173.8,314.7 
				173.2,313.5 			"/>
		</g>
		<g>
			<defs>
				<polyline id="SVGID_00000156581639620185632270000003585805439957106085_" points="-9.6,779 602.3,779 602.3,-8.2 -9.6,-8.2 
					-9.6,779 				"/>
			</defs>
			<clipPath id="SVGID_00000013168275243496843320000005588231015743361711_">
				<use xlink:href="#SVGID_00000156581639620185632270000003585805439957106085_"  style="overflow:visible;"/>
			</clipPath>
			
				<polyline style="clip-path:url(#SVGID_00000013168275243496843320000005588231015743361711_);fill:none;stroke:#ED2224;stroke-width:2;stroke-linecap:round;stroke-linejoin:round;stroke-miterlimit:10;" points="
				173.2,313.5 172.6,312.4 172.2,311.5 171.8,310.7 171.7,310.4 171.6,310.2 171.5,310.1 171.4,310 171.4,309.9 171.4,309.8 
				171.3,309.6 171.2,309.4 171.1,309.1 170.8,308.3 170.5,307.3 170.2,306.2 169.8,304.9 169.3,303.6 168.9,302.2 167.9,299.3 
				167.5,298 167.1,296.7 166.6,295.5 166.3,294.4 166,293.6 165.8,292.9 165.7,292.6 165.6,292.4 165.6,292.3 165.6,292.3 
				165.6,292.1 165.6,292 165.5,291.7 165.4,291.1 165.3,290.2 165.1,289.2 164.8,288.1 164.7,286.7 164.4,285.4 163.9,282.5 
				163.5,279.8 163.2,278.5 163,277.4 162.9,276.4 162.7,275.6 162.6,275 162.6,274.8 162.6,274.7 162.6,274.6 162.6,274.5 
				162.6,274.4 162.6,274.1 162.6,273.9 162.6,273.2 162.5,272.3 162.5,271.2 162.5,270 162.4,268.7 162.4,266 162.4,263.3 
				162.3,262 162.3,260.8 162.3,259.7 162.3,258.8 162.3,258.1 162.3,257.8 162.3,257.6 162.3,257.5 162.3,257.4 162.3,257.3 
				162.3,257.2 162.3,257 162.4,256.4 162.4,255.7 162.6,254.8 162.7,253.7 162.9,252.5 163.3,250 163.6,247.4 163.8,246.1 
				163.9,244.9 164.1,243.8 164.2,242.9 164.4,242.1 164.4,241.5 164.5,241.3 164.5,241.1 164.5,241 164.5,240.9 164.6,240.5 
				164.8,240.1 165,239.5 165.2,238.7 165.5,237.8 166,236 166.7,234 167.3,232 167.6,231.2 167.8,230.3 168,229.7 168.2,229.1 
				168.3,228.7 168.4,228.5 168.4,228.5 168.4,228.4 168.5,228.2 168.6,228.1 168.6,228 168.6,227.9 168.6,227.8 168.7,227.6 
				168.8,227.3 169,226.7 169.2,226.1 169.2,226 169.2,225.9 169.3,225.8 169.3,225.7 169.5,225.4 169.8,224.8 170.2,224.2 
				170.6,223.3 171.1,222.4 172.2,220.4 173.3,218.2 174.4,216.2 174.9,215.2 175.3,214.4 175.8,213.7 176.1,213.1 176.2,212.7 
				176.4,212.5 176.4,212.5 176.5,212.3 176.8,211.9 177.3,211.4 177.8,210.8 178.4,210.1 179.1,209.3 179.8,208.4 181.3,206.6 
				182.8,204.8 183.5,204 184.1,203.2 184.6,202.6 185.1,202 185.5,201.6 185.7,201.4 185.8,201.2 185.9,201.2 186.1,200.9 
				186.6,200.6 187.2,200.2 187.8,199.7 188.6,199.1 189.5,198.5 193.2,195.7 194.1,195.1 194.8,194.5 195.6,193.9 196.3,193.4 
				196.8,193 197.2,192.7 197.4,192.6 197.4,192.5 197.6,192.5 198,192.3 198.6,192.1 199.3,191.8 200.2,191.4 201.1,191 
				203.2,190.1 205.4,189.2 207.5,188.3 208.5,187.9 209.3,187.6 210,187.3 210.6,187.1 210.9,186.9 211.1,186.8 211.2,186.8 
				211.4,186.8 211.8,186.8 212.2,186.7 212.8,186.6 213.5,186.5 215.1,186.3 216.8,186 218.5,185.8 219.3,185.7 219.9,185.6 
				220.6,185.5 221.1,185.4 221.4,185.3 221.7,185.3 221.8,185.3 222,185.3 222.1,185.3 222.7,185.2 223.4,185.1 225,184.9 
				225.7,184.7 226.3,184.7 226.6,184.6 226.8,184.6 226.9,184.6 227.1,184.6 227.4,184.6 227.8,184.7 228.3,184.7 228.8,184.7 
				229.5,184.8 230.2,184.9 231,184.9 232.8,185 234.9,185.2 237,185.4 239.2,185.6 243.9,185.9 246.1,186.1 248.2,186.2 
				250.1,186.4 251,186.5 251.8,186.5 252.6,186.6 253.3,186.7 253.9,186.7 254.4,186.8 254.8,186.8 255.1,186.8 255.3,186.8 
				255.4,186.8 255.5,186.9 255.7,187 256,187 256.3,187.1 256.8,187.3 257.2,187.5 257.7,187.7 258.9,188.1 260.4,188.6 
				261.9,189.1 263.5,189.7 266.8,190.9 268.5,191.4 270.1,192 271.6,192.5 273,193 274.1,193.4 274.6,193.6 275.1,193.7 
				275.5,193.9 			"/>
		</g>
		<g>
			<defs>
				<polyline id="SVGID_00000092454504257667160430000006001047910152864429_" points="-9.6,779 602.3,779 602.3,-8.2 -9.6,-8.2 
					-9.6,779 				"/>
			</defs>
			<clipPath id="SVGID_00000183214503978333008610000004653241416183471285_">
				<use xlink:href="#SVGID_00000092454504257667160430000006001047910152864429_"  style="overflow:visible;"/>
			</clipPath>
			
				<polyline style="clip-path:url(#SVGID_00000183214503978333008610000004653241416183471285_);fill:none;stroke:#ED2224;stroke-width:2;stroke-linecap:round;stroke-linejoin:round;stroke-miterlimit:10;" points="
				275.5,193.9 275.8,194 276,194 276.2,194.1 276.3,194.2 276.3,194.2 276.4,194.2 276.4,194.3 276.8,194.5 277.3,194.9 278,195.3 
				278.8,195.8 279.7,196.4 280.6,197 284.7,199.7 285.6,200.4 286.5,201 287.3,201.5 288,202 288.5,202.3 288.9,202.6 289,202.6 
				289,202.7 289.2,202.8 289.6,203 290.1,203.3 290.6,203.7 291.7,204.4 292.1,204.7 292.4,204.9 292.5,205 292.5,205 292.5,205 
				292.6,205.1 292.8,205.2 293,205.4 293.2,205.6 293.5,205.9 294.3,206.5 295.1,207.2 296.1,208.1 297.1,209 298.2,210.1 
				300.6,212.1 301.7,213.1 302.8,214.1 303.8,215 304.7,215.8 305.5,216.5 306.1,217 306.4,217.3 306.6,217.4 306.8,217.6 
				306.9,217.7 306.9,217.7 307,217.8 307.1,217.9 307.5,218.2 308,218.6 308.7,219.2 309.4,219.8 310.3,220.5 311.2,221.3 
				315.1,224.6 316,225.3 316.8,226 317.5,226.6 318.1,227.2 318.7,227.6 319,227.8 319.1,227.9 319.1,228 319.2,228.1 319.6,228.4 
				319.7,228.5 319.8,228.5 319.8,228.6 320.1,228.8 320.4,229.1 321.3,229.7 321.7,230.1 322,230.4 322.3,230.6 322.4,230.7 
				322.5,230.8 322.6,230.8 322.8,230.9 323.1,231.1 323.4,231.4 323.8,231.6 324.3,231.8 325.3,232.5 326.6,233.3 328,234.1 
				329.5,235 332.5,236.8 335.7,238.7 337.1,239.6 338.4,240.4 339.6,241.1 340,241.4 340.5,241.6 340.9,241.9 341.2,242.1 
				341.5,242.2 341.7,242.4 341.9,242.5 342,242.5 342.1,242.5 342.3,242.6 342.6,242.7 342.9,242.8 343.8,243.1 344.7,243.4 
				345.6,243.7 346.5,244 347.1,244.2 347.4,244.3 347.6,244.4 347.7,244.4 347.8,244.4 347.8,244.4 348,244.5 348.3,244.6 
				348.6,244.7 349,244.9 349.5,245 350.5,245.4 351.9,245.8 353.2,246.3 354.8,246.8 356.4,247.3 359.7,248.5 361.3,249 
				362.9,249.5 364.3,250 365.6,250.4 366.7,250.7 367.1,250.9 367.5,251 367.8,251.2 368.1,251.2 368.2,251.3 368.4,251.3 
				368.5,251.3 368.8,251.4 369.2,251.5 369.8,251.5 370.5,251.6 371.2,251.7 372.1,251.8 373.1,251.9 374.2,252.1 375.3,252.2 
				376.5,252.3 379.1,252.7 381.9,253 387.7,253.7 390.6,254 393.4,254.3 396,254.7 397.3,254.8 398.4,254.9 399.5,255.1 
				400.5,255.2 401.5,255.3 402.3,255.4 403,255.5 403.6,255.6 404.1,255.7 404.4,255.7 404.6,255.7 404.7,255.7 404.8,255.7 
				405,255.7 405.4,255.7 406,255.7 406.6,255.7 407.4,255.7 408.3,255.7 409.2,255.7 410.3,255.8 411.4,255.8 412.6,255.8 
				413.9,255.8 416.6,255.8 419.5,255.8 422.4,255.8 428.3,255.8 431.1,255.9 433.7,255.9 434.9,255.9 436,255.9 437.1,255.9 
				438,255.9 438.9,255.9 439.6,255.9 440.3,256 440.8,256 441.1,256 441.4,256 441.6,256 441.7,255.9 442,255.9 442.3,255.9 
				442.8,255.8 443.4,255.8 444,255.8 444.7,255.7 445.5,255.7 447.2,255.5 449.1,255.4 451.2,255.2 453.4,255.1 457.8,254.8 
				459.9,254.6 462,254.5 463.8,254.3 465.5,254.2 466.2,254.2 466.9,254.2 467.5,254.1 468,254 468.4,254 468.7,254 468.9,254 
				469,254 469,254 469.1,254 469.5,253.9 470.1,253.7 470.8,253.6 472.3,253.3 472.9,253.2 473.4,253.1 473.6,253.1 473.7,253 
				473.8,253 474.1,253 474.4,252.9 474.9,252.8 475.5,252.7 476.2,252.5 476.9,252.4 477.7,252.2 478.6,252.1 479.5,251.9 
				481.6,251.5 483.9,251 486.3,250.6 488.7,250.1 			"/>
		</g>
		<g>
			<defs>
				<polyline id="SVGID_00000072999391409093581880000008550854872120796574_" points="-9.6,779 602.3,779 602.3,-8.2 -9.6,-8.2 
					-9.6,779 				"/>
			</defs>
			<clipPath id="SVGID_00000111187905915898108090000012538598229116788908_">
				<use xlink:href="#SVGID_00000072999391409093581880000008550854872120796574_"  style="overflow:visible;"/>
			</clipPath>
			
				<polyline style="clip-path:url(#SVGID_00000111187905915898108090000012538598229116788908_);fill:none;stroke:#ED2224;stroke-width:2;stroke-linecap:round;stroke-linejoin:round;stroke-miterlimit:10;" points="
				488.7,250.1 493.5,249.1 495.8,248.6 497.9,248.2 498.9,248 499.8,247.9 500.6,247.7 501.4,247.5 502,247.4 502.6,247.3 
				503.1,247.2 503.5,247.1 503.8,247 504,247 504.1,247 504.3,247 504.5,246.9 504.8,246.8 505.2,246.7 505.6,246.6 506.2,246.5 
				507.4,246.2 508.8,245.9 510.4,245.5 512.1,245.1 513.8,244.7 517.3,243.8 519,243.4 520.6,243.1 522.1,242.7 523.4,242.4 
				523.9,242.2 524.5,242.1 524.9,242 525.3,241.9 525.6,241.9 525.8,241.8 525.9,241.7 526,241.7 			"/>
		</g>
	</g>
</g>
<g id="Drawn_layer">
	<path class="st12" d="M75,17.8c0.1-0.3,0.7-1.6,1.3-3.3c0.4-1.3,0.7-2.1,0.7-3.1c0.1-1.1,0.1-1.9-0.4-2.4c-0.5-0.6-1.4-0.6-2-0.6
		c-1.2,0-2.2,0.4-3.4,1c-1.5,0.8-2.2,1.5-3.3,2.4c-1.2,0.9-2.2,1.6-4.3,2.9c-3.8,2.4-7.5,3.6-9.4,4.2c-4.1,1.3-6.5,2.1-9.8,1.9
		c-2.7-0.1-5.4-0.9-5.6-0.9c-2.5-0.7-3-1.2-5.4-1.7c-1.1-0.2-2.8-0.5-4.9-0.3c-2.6,0.2-4.5,1.1-5,1.3c-1.3,0.6-3.1,1.5-4.6,3.5
		c-1.8,2.4-1.9,4.9-1.9,6.1c-0.1,2.7,0.6,4.8,1.2,6.2c0.3,0.7,1,2.4,2.3,4.3c0.4,0.5,2.1,2.9,5.2,4.9c0.8,0.5,3.7,2.4,8.2,3.3
		c0.8,0.2,4.5,0.9,9.4,0.1c4.6-0.8,7.8-2.5,10-3.7c3.9-2.2,6.4-4.5,8.2-6.2c3.4-3.2,5.5-6.1,7.3-8.6c2.3-3.2,3.7-5.8,4.4-7
		C73.2,21.4,74.1,19.9,75,17.8z"/>
	<path class="st13" d="M10.8,35.5c-0.1,0.3-0.7,1.6-1.3,3.3c-0.5,1.3-0.7,2.1-0.8,3.1c-0.1,1.1-0.1,1.9,0.4,2.4
		c0.5,0.6,1.4,0.6,2,0.6c1.2,0,2.2-0.3,3.4-1c1.5-0.8,2.2-1.5,3.3-2.3c1.2-0.9,2.2-1.6,4.3-2.8c3.8-2.3,7.5-3.6,9.4-4.2
		c4.1-1.3,6.5-2.1,9.8-1.9c2.7,0.2,5.4,0.9,5.6,1c2.5,0.7,3,1.3,5.4,1.8c1.1,0.2,2.8,0.6,4.9,0.4c2.6-0.2,4.5-1,5-1.3
		c1.3-0.6,3.1-1.5,4.7-3.5c1.8-2.4,1.9-4.9,2-6.1c0.2-2.7-0.6-4.8-1.1-6.2c-0.3-0.7-0.9-2.4-2.3-4.3c-0.4-0.5-2.1-2.9-5.2-5
		c-0.7-0.5-3.7-2.4-8.1-3.4C51.5,6,47.7,5.2,42.9,6c-4.6,0.7-7.9,2.5-10,3.6c-3.9,2.1-6.4,4.5-8.3,6.2c-3.4,3.2-5.5,6-7.3,8.6
		c-2.3,3.2-3.8,5.7-4.5,7C12.6,31.9,11.7,33.4,10.8,35.5z"/>
</g>
</svg>
