<?xml version="1.0" encoding="utf-8"?>
<!-- Generator: Adobe Illustrator 26.0.3, SVG Export Plug-In . SVG Version: 6.00 Build 0)  -->
<svg version="1.1" id="Layer_1" xmlns="http://www.w3.org/2000/svg" xmlns:xlink="http://www.w3.org/1999/xlink" x="0px" y="0px"
	 viewBox="0 0 700 700" style="enable-background:new 0 0 700 700;" xml:space="preserve">
<g>
	<path d="M496.1,295.9c-9.6,0-18.5,2.8-25.9,7.6c-6.4-17.8-24-30.9-44.1-30.9c-9.6,0-18.5,2.8-25.9,7.6c-6.4-17.8-24-30.9-44.1-30.9
		c-8.5,0-16.5,2.2-23.3,6l0-101c0-24.8-20.9-45-46.7-45c-25.3,0-46.7,20.9-46.7,45.5v191.3l-33-33.9c-16.8-16.9-47.6-16.3-64.9,1.1
		c-16.4,16.4-17.3,42.8-2.1,64.1c10.3,14.5,22.7,41.4,35.8,70c34.6,75.4,73.9,160.9,129.3,160.9h131.8c1.5,0,2.9-0.3,4.3-0.8
		c4.2-1.6,102.1-41.9,102.1-139.7l0-126.2C542.8,316.8,521.4,295.9,496.1,295.9L496.1,295.9z"/>
	<path d="M216.1,249.5v-94.8c0-37.4,32.1-68.9,70-68.9c38.6,0,70,30.6,70,68.4v71.6c6.6,0,13,1.3,19.1,3
		c15.4-19.6,24.1-43.2,24.1-68.3c0-30-11.9-58.3-33.6-79.6C321.3,37.4,249,37.4,204.4,81c-21.6,21.3-33.5,49.5-33.5,79.5
		c0,30.1,11.9,58.3,33.5,79.6C208.1,243.7,212.2,246.6,216.1,249.5L216.1,249.5z"/>
</g>
</svg>
